{
    "asset" : {
        "generator" : "Khronos glTF Blender I/O v1.7.33",
        "version" : "2.0"
    },
    "scene" : 0,
    "scenes" : [
        {
            "name" : "Scene",
            "nodes" : [
                4
            ]
        }
    ],
    "nodes" : [
        {
            "mesh" : 0,
            "name" : "Mesh_0",
            "translation" : [
                -119.40386962890625,
                -23.4256649017334,
                7.5
            ]
        },
        {
            "children" : [
                0
            ],
            "name" : "node_id33",
            "scale" : [
                0.0010000000474974513,
                0.0010000000474974513,
                0.0010000000474974513
            ],
            "translation" : [
                0.00011417092173360288,
                0.048510078340768814,
                0.25000929832458496
            ]
        },
        {
            "mesh" : 1,
            "name" : "Mesh_1",
            "translation" : [
                -24.282894134521484,
                -24.48550796508789,
                7.5
            ]
        },
        {
            "children" : [
                2
            ],
            "name" : "node_id40",
            "rotation" : [
                0,
                0,
                0.7077472805976868,
                -0.7064657211303711
            ],
            "scale" : [
                0.0009999998146668077,
                0.0009999998146668077,
                0.0010000000474974513
            ],
            "translation" : [
                0.002950959838926792,
                -0.027066431939601898,
                0.4199545383453369
            ]
        },
        {
            "children" : [
                1,
                3
            ],
            "name" : "root"
        }
    ],
    "materials" : [
        {
            "doubleSided" : true,
            "name" : "Material_0",
            "pbrMetallicRoughness" : {}
        },
        {
            "doubleSided" : true,
            "name" : "Material_1",
            "pbrMetallicRoughness" : {}
        }
    ],
    "meshes" : [
        {
            "name" : "Mesh_0",
            "primitives" : [
                {
                    "attributes" : {
                        "POSITION" : 0,
                        "NORMAL" : 1,
                        "TEXCOORD_0" : 2,
                        "COLOR_0" : 3
                    },
                    "indices" : 4,
                    "material" : 0
                }
            ]
        },
        {
            "name" : "Mesh_1",
            "primitives" : [
                {
                    "attributes" : {
                        "POSITION" : 5,
                        "NORMAL" : 6
                    },
                    "indices" : 7,
                    "material" : 1
                }
            ]
        }
    ],
    "accessors" : [
        {
            "bufferView" : 0,
            "componentType" : 5126,
            "count" : 1434,
            "max" : [
                239.30650329589844,
                49.71914291381836,
                0
            ],
            "min" : [
                -0.4987500309944153,
                -2.8678126335144043,
                -15
            ],
            "type" : "VEC3"
        },
        {
            "bufferView" : 1,
            "componentType" : 5126,
            "count" : 1434,
            "type" : "VEC3"
        },
        {
            "bufferView" : 2,
            "componentType" : 5126,
            "count" : 1434,
            "type" : "VEC2"
        },
        {
            "bufferView" : 3,
            "componentType" : 5123,
            "count" : 1434,
            "normalized" : true,
            "type" : "VEC4"
        },
        {
            "bufferView" : 4,
            "componentType" : 5123,
            "count" : 2892,
            "type" : "SCALAR"
        },
        {
            "bufferView" : 5,
            "componentType" : 5126,
            "count" : 339,
            "max" : [
                44.73164367675781,
                55.4235954284668,
                0
            ],
            "min" : [
                3.8341407775878906,
                -6.452578544616699,
                -15
            ],
            "type" : "VEC3"
        },
        {
            "bufferView" : 6,
            "componentType" : 5126,
            "count" : 339,
            "type" : "VEC3"
        },
        {
            "bufferView" : 7,
            "componentType" : 5123,
            "count" : 744,
            "type" : "SCALAR"
        }
    ],
    "bufferViews" : [
        {
            "buffer" : 0,
            "byteLength" : 17208,
            "byteOffset" : 0
        },
        {
            "buffer" : 0,
            "byteLength" : 17208,
            "byteOffset" : 17208
        },
        {
            "buffer" : 0,
            "byteLength" : 11472,
            "byteOffset" : 34416
        },
        {
            "buffer" : 0,
            "byteLength" : 11472,
            "byteOffset" : 45888
        },
        {
            "buffer" : 0,
            "byteLength" : 5784,
            "byteOffset" : 57360
        },
        {
            "buffer" : 0,
            "byteLength" : 4068,
            "byteOffset" : 63144
        },
        {
            "buffer" : 0,
            "byteLength" : 4068,
            "byteOffset" : 67212
        },
        {
            "buffer" : 0,
            "byteLength" : 1488,
            "byteOffset" : 71280
        }
    ],
    "buffers" : [
        {
            "byteLength" : 72768,
            "uri" : "data:application/octet-stream;base64,"
        }
    ]
}
