{
    "asset" : {
        "generator" : "Khronos glTF Blender I/O v1.7.33",
        "version" : "2.0"
    },
    "scene" : 0,
    "scenes" : [
        {
            "name" : "Scene",
            "nodes" : [
                2,
                7
            ]
        }
    ],
    "nodes" : [
        {
            "name" : "node_id33",
            "scale" : [
                0.0010000000474974513,
                0.0010000000474974513,
                0.0010000000474974513
            ],
            "translation" : [
                0.00011417092173360288,
                0.048510078340768814,
                0.25000929832458496
            ]
        },
        {
            "name" : "node_id40",
            "rotation" : [
                0,
                0,
                0.7077472805976868,
                -0.7064657211303711
            ],
            "scale" : [
                0.0009999998146668077,
                0.0009999998146668077,
                0.0010000000474974513
            ],
            "translation" : [
                0.002950959838926792,
                -0.027066431939601898,
                0.4199545383453369
            ]
        },
        {
            "children" : [
                0,
                1
            ],
            "name" : "root"
        },
        {
            "mesh" : 0,
            "name" : "Mesh_0.001",
            "translation" : [
                -102.29051208496094,
                -23.4256649017334,
                7.5
            ]
        },
        {
            "children" : [
                3
            ],
            "name" : "node_id52",
            "scale" : [
                0.0010000000474974513,
                0.0010000000474974513,
                0.0010000000474974513
            ],
            "translation" : [
                0.14227920770645142,
                0.002490477403625846,
                0.2500312626361847
            ]
        },
        {
            "mesh" : 1,
            "name" : "Mesh_1.001",
            "translation" : [
                -24.28289031982422,
                -24.48550796508789,
                7.5
            ]
        },
        {
            "children" : [
                5
            ],
            "name" : "node_id59",
            "rotation" : [
                0,
                0,
                0.7142336368560791,
                -0.6999073624610901
            ],
            "scale" : [
                0.0009999998146668077,
                0.0009999998146668077,
                0.0010000000474974513
            ],
            "translation" : [
                0.12794974446296692,
                -0.07262963801622391,
                0.2500312626361847
            ]
        },
        {
            "children" : [
                4,
                6
            ],
            "name" : "root.001"
        }
    ],
    "materials" : [
        {
            "doubleSided" : true,
            "name" : "Material_0.001",
            "pbrMetallicRoughness" : {}
        },
        {
            "doubleSided" : true,
            "name" : "Material_1.001",
            "pbrMetallicRoughness" : {}
        }
    ],
    "meshes" : [
        {
            "name" : "Mesh_0.001",
            "primitives" : [
                {
                    "attributes" : {
                        "POSITION" : 0,
                        "NORMAL" : 1,
                        "TEXCOORD_0" : 2,
                        "COLOR_0" : 3
                    },
                    "indices" : 4,
                    "material" : 0
                }
            ]
        },
        {
            "name" : "Mesh_1.001",
            "primitives" : [
                {
                    "attributes" : {
                        "POSITION" : 5,
                        "NORMAL" : 6
                    },
                    "indices" : 7,
                    "material" : 1
                }
            ]
        }
    ],
    "accessors" : [
        {
            "bufferView" : 0,
            "componentType" : 5126,
            "count" : 1365,
            "max" : [
                203.302978515625,
                49.71914291381836,
                0
            ],
            "min" : [
                1.27804696559906,
                -2.8678126335144043,
                -15
            ],
            "type" : "VEC3"
        },
        {
            "bufferView" : 1,
            "componentType" : 5126,
            "count" : 1365,
            "type" : "VEC3"
        },
        {
            "bufferView" : 2,
            "componentType" : 5126,
            "count" : 1365,
            "type" : "VEC2"
        },
        {
            "bufferView" : 3,
            "componentType" : 5123,
            "count" : 1365,
            "normalized" : true,
            "type" : "VEC4"
        },
        {
            "bufferView" : 4,
            "componentType" : 5123,
            "count" : 2736,
            "type" : "SCALAR"
        },
        {
            "bufferView" : 5,
            "componentType" : 5126,
            "count" : 337,
            "max" : [
                44.73164367675781,
                55.4235954284668,
                0
            ],
            "min" : [
                3.8341407775878906,
                -6.452578544616699,
                -15
            ],
            "type" : "VEC3"
        },
        {
            "bufferView" : 6,
            "componentType" : 5126,
            "count" : 337,
            "type" : "VEC3"
        },
        {
            "bufferView" : 7,
            "componentType" : 5123,
            "count" : 744,
            "type" : "SCALAR"
        }
    ],
    "bufferViews" : [
        {
            "buffer" : 0,
            "byteLength" : 16380,
            "byteOffset" : 0
        },
        {
            "buffer" : 0,
            "byteLength" : 16380,
            "byteOffset" : 16380
        },
        {
            "buffer" : 0,
            "byteLength" : 10920,
            "byteOffset" : 32760
        },
        {
            "buffer" : 0,
            "byteLength" : 10920,
            "byteOffset" : 43680
        },
        {
            "buffer" : 0,
            "byteLength" : 5472,
            "byteOffset" : 54600
        },
        {
            "buffer" : 0,
            "byteLength" : 4044,
            "byteOffset" : 60072
        },
        {
            "buffer" : 0,
            "byteLength" : 4044,
            "byteOffset" : 64116
        },
        {
            "buffer" : 0,
            "byteLength" : 1488,
            "byteOffset" : 68160
        }
    ],
    "buffers" : [
        {
            "byteLength" : 69648,
            "uri" : "data:application/octet-stream;base64,"
        }
    ]
}
